mtllib part_7.mtl
usemtl part_7

v 1.0393106842041016 -0.007395111322402954 0.15
v 1.0209832000732422 -0.030706942081451416 0.15
v 1.0331398773193359 -0.022399997711181643 0.15
v 1.0393106842041016 -0.007395111322402954 0.1
v 1.0331398773193359 -0.022399997711181643 0.1
v 1.0225676727294921 -0.03302574872970581 0.15
v 1.0390143585205078 0.008826422691345216 0.1
v 0.4529232406616211 0.7504789733886719 0.1
v 1.0390143585205078 0.008826422691345216 0.15
v 1.0330261993408203 0.022567589282989502 0.1
v 1.0330261993408203 0.022567589282989502 0.15
v 0.5252595901489258 0.7656510925292969 0.1
v 0.4715924453735352 0.7289790344238282 0.1
v 0.4782335662841797 0.7223714447021484 0.15
v 0.4782335662841797 0.7223714447021484 0.1
v 0.4876116180419922 0.718514633178711 0.15
v 0.4876116180419922 0.718514633178711 0.1
v 0.4977500534057617 0.7186998748779297 0.15
v 0.4977500534057617 0.7186998748779297 0.1
v 0.5063383102416992 0.7224424743652343 0.15
v 0.4715924453735352 0.7289790344238282 0.15
v 0.46784988403320316 0.7375672912597656 0.1
v 0.46784988403320316 0.7375672912597656 0.15
v 0.46766464233398436 0.7477057647705079 0.1
v 0.46766464233398436 0.7477057647705079 0.15
v 0.47152141571044925 0.7570838165283204 0.1
v 0.47152141571044925 0.7570838165283204 0.15
v 0.4781290435791016 0.7637248992919922 0.1
v 0.4781290435791016 0.7637248992919922 0.15
v 0.48671726226806644 0.7674674987792969 0.1
v 0.48671726226806644 0.7674674987792969 0.15
v 0.4968557357788086 0.7676526641845703 0.1
v 0.49962898254394533 0.7823941040039063 0.1
v 0.4968557357788086 0.7676526641845703 0.15
v 0.5062337875366211 0.7637959289550782 0.1
v 0.5062337875366211 0.7637959289550782 0.15
v 0.512874870300293 0.7571883392333985 0.1
v 0.5146338653564453 0.7762232208251953 0.15
v 0.5146338653564453 0.7762232208251953 0.1
v 0.5252595901489258 0.7656510925292969 0.15
v 0.49962898254394533 0.7823941040039063 0.15
v 0.4834074401855469 0.7820977783203125 0.1
v 0.512874870300293 0.7571883392333985 0.15
v 0.5166174697875977 0.748600082397461 0.1
v 0.5166174697875977 0.748600082397461 0.15
v 0.5168026733398438 0.7384616088867187 0.1
v 0.5168026733398438 0.7384616088867187 0.15
v 0.5129458999633789 0.7290835571289063 0.1
v 0.5129458999633789 0.7290835571289063 0.15
v 0.5063383102416992 0.7224424743652343 0.1
v 0.4712507629394531 0.7737908172607422 0.1
v 0.4834074401855469 0.7820977783203125 0.15
v 0.4696662521362305 0.776109619140625 0.1
v 0.4696662521362305 0.776109619140625 0.15
v 0.4590940856933594 0.7654838562011719 0.1
v 0.4590940856933594 0.7654838562011719 0.15
v 0.4529232406616211 0.7504789733886719 0.15
v 0.4532196044921875 0.7342574310302734 0.1
v 1.0206414794921874 0.01410481333732605 0.1
v 1.0243840789794922 0.005516583323478699 0.1
v 1.024569320678711 -0.004621875286102295 0.1
v 1.0243840789794922 0.005516583323478699 0.15
v 1.0206414794921874 0.01410481333732605 0.15
v 1.024569320678711 -0.004621875286102295 0.15
v 1.0207125091552736 -0.013999929428100586 0.1
v 1.0207125091552736 -0.013999929428100586 0.15
v 1.0141049194335938 -0.020641024112701415 0.1
v 1.0055166625976564 -0.02438360691070557 0.1
v 1.0141049194335938 -0.020641024112701415 0.15
v 1.0055166625976564 -0.02438360691070557 0.15
v 0.9953781890869141 -0.02456883192062378 0.1
v 0.97760009765625 -0.033139395713806155 0.1
v 0.9953781890869141 -0.02456883192062378 0.15
v 0.9860001373291016 -0.020712051391601562 0.1
v 0.9860001373291016 -0.020712051391601562 0.15
v 0.9793590545654297 -0.014104442596435547 0.1
v 0.9793590545654297 -0.014104442596435547 0.15
v 0.975616455078125 -0.005516213178634643 0.1
v 0.975616455078125 -0.005516213178634643 0.15
v 0.9754312896728515 0.00462224543094635 0.1
v 0.9754312896728515 0.00462224543094635 0.15
v 0.9792880249023438 0.014000300168991089 0.1
v 0.9792880249023438 0.014000300168991089 0.15
v 0.9858956146240234 0.020641393661499023 0.1
v 0.9858956146240234 0.020641393661499023 0.15
v 0.994483871459961 0.024383978843688967 0.1
v 0.994483871459961 0.024383978843688967 0.15
v 1.0046223449707032 0.024569201469421386 0.1
v 1.0046223449707032 0.024569201469421386 0.15
v 1.0140003967285156 0.02071242332458496 0.1
v 1.0140003967285156 0.02071242332458496 0.15
v 0.99260498046875 -0.039310240745544435 0.15
v 0.99260498046875 -0.039310240745544435 0.1
v 0.97760009765625 -0.033139395713806155 0.15
v 0.966974334716797 -0.022567219734191894 0.15
v 1.0088265228271485 -0.0390138840675354 0.1
v 1.0075862884521485 -0.036167993545532226 0.1
v 1.0088265228271485 -0.0390138840675354 0.15
v 1.0225676727294921 -0.03302574872970581 0.1
v 0.4532196044921875 0.7342574310302734 0.15
v 0.45920772552490235 0.7205162811279296 0.15
v 0.966974334716797 -0.022567219734191894 0.1
v 0.45920772552490235 0.7205162811279296 0.1
vn -2.468218009398773e-15 5.750477456272765e-15 1.0
vn 0.9248437285423279 -0.38034728169441223 1.282879705244433e-11
vn 0.7088915705680847 -0.7053174376487732 -1.185263345804266e-11
vn 0.9248437285423279 -0.38034728169441223 -7.335683946949664e-15
vn 0.9998331665992737 0.0182663481682539 -8.551048324284549e-15
vn -1.7597919454463901e-15 -1.1272113291735256e-15 -1.0
vn 0.9998331665992737 0.0182663481682539 -2.8680677472049275e-15
vn 0.9167351722717285 0.3994954824447632 -3.1821058476741697e-15
vn -4.390196753090983e-15 -3.2058894740418864e-15 -1.0
vn 0.9167351722717285 0.3994954824447632 -3.170109531800444e-15
vn 0.825648307800293 0.5641851425170898 -3.148388854175765e-15
vn -7.470529051053706e-15 -5.660734739027645e-15 -1.0
vn 0.7053174376487732 0.7088915705680847 -5.021740283399053e-15
vn 0.38034728169441223 0.9248437285423279 -5.871600203114814e-15
vn -0.0182663481682539 0.9998331665992737 -8.019585863439094e-12
vn -0.3994954824447632 0.9167351722717285 7.407202455567141e-12
vn -0.0182663481682539 0.9998331665992737 -2.6858732895911324e-15
vn -5.4505867118468006e-15 -4.041912898806012e-15 -1.0
vn 0.38034728169441223 0.9248437285423279 -4.2590764763724906e-15
vn 1.315311406374696e-15 1.3219767086366401e-15 -1.0
vn 0.7053174376487732 0.7088915705680847 -4.017447199157519e-15
vn 0.9167351722717285 0.3994954824447632 -3.744877078928769e-15
vn 0.9167351722717285 0.3994954824447632 7.403060803268247e-12
vn 0.9998331665992737 0.0182663481682539 -8.021136706226617e-12
vn -4.289004267981353e-15 -3.582552531949902e-15 -1.0
vn 0.9998331665992737 0.0182663481682539 -2.8418933703435855e-15
vn 0.9248437285423279 -0.38034728169441223 -2.6285640991710905e-15
vn -3.6861836249146764e-15 -3.7819933744631825e-16 -1.0
vn 0.9248437285423279 -0.38034728169441223 -1.0839294278764885e-15
vn 0.7088915705680847 -0.7053174376487732 -2.004632853959995e-15
vn -2.9701646517439877e-15 -2.394402264419113e-15 -1.0
vn 0.7088915705680847 -0.7053174376487732 -1.1850876842523706e-17
vn 0.3994954824447632 -0.9167351722717285 1.4695086722246579e-15
vn 0.3994954824447632 -0.9167351722717285 7.412180244581457e-12
vn 0.0182663481682539 -0.9998331665992737 -8.011190669177104e-12
vn -3.4720988003532306e-15 -1.7568324123286836e-15 -1.0
vn 0.0182663481682539 -0.9998331665992737 -5.132241779713015e-17
vn -0.38034728169441223 -0.9248437285423279 1.081012034647908e-15
vn -9.199605781887643e-16 -2.2369549331505362e-15 -1.0
vn -0.38034728169441223 -0.9248437285423279 6.339344925599321e-15
vn -0.7053174376487732 -0.7088915705680847 6.034214858878116e-15
vn -2.9391355055454578e-15 -2.9540293093735038e-15 -1.0
vn 0.38034728169441223 0.9248437285423279 1.2828019896327092e-11
vn 0.7053174376487732 0.7088915705680847 -1.185407414588946e-11
vn 0.38034728169441223 0.9248437285423279 -4.256339289403438e-15
vn -0.0182663481682539 0.9998331665992737 -2.7638225553533935e-15
vn 9.72026141665657e-18 -4.7686426035947315e-15 -1.0
vn -4.37770513470135e-15 2.8402317034593094e-16 -1.0
vn -8.118735413500163e-15 -5.67596354438633e-15 -1.0
vn -0.7053174376487732 -0.7088915705680847 2.002798180596242e-15
vn -0.9167351722717285 -0.3994954824447632 2.607192822637154e-15
vn -0.9167351722717285 -0.3994954824447632 7.409407289105108e-12
vn -0.9998331665992737 -0.0182663481682539 -8.0154008430533e-12
vn -1.0591529597805816e-16 -1.9350085108991185e-18 -1.0
vn -0.9998331665992737 -0.0182663481682539 4.158484537622464e-15
vn -0.9248437285423279 0.38034728169441223 6.104870112173333e-15
vn -1.7385185012178616e-15 -1.1791877060367728e-15 -1.0
vn -0.9248437285423279 0.38034728169441223 4.6422839225892295e-15
vn -0.7088915705680847 0.7053174376487732 3.0474974892788845e-17
vn -4.693583202490265e-15 -3.354468793869184e-15 -1.0
vn -0.3994954824447632 0.9167351722717285 -1.4695086722246579e-15
vn -0.7088915705680847 0.7053174376487732 1.1850876842523706e-17
vn -3.1734360419425484e-15 -2.2104885416806283e-15 -1.0
vn -4.137582652998927e-18 2.264761489561678e-16 -1.0
vn -2.664298195754263e-16 -1.1610497660207429e-16 -1.0
vn -3.3151878526985028e-15 -2.3038792180713353e-15 -1.0
vn -3.4145287237854344e-15 -1.1255232983887662e-15 -1.0
vn -2.0897238780170305e-15 -5.4954260949756015e-15 -1.0
vn -0.0182663481682539 0.9998331665992737 2.5661208898565076e-17
vn -0.3994954824447632 0.9167351722717285 5.677172154522944e-16
vn -3.98442561970881e-15 -2.722652730710335e-15 -1.0
vn -0.3994954824447632 0.9167351722717285 -1.4665459627333992e-15
vn -0.7088915705680847 0.7053174376487732 0.0
vn -0.7088915705680847 0.7053174376487732 -1.1853051526400371e-11
vn -0.9248437285423279 0.38034728169441223 1.2831655009371001e-11
vn -6.892781430258704e-16 -3.268086891600533e-15 -1.0
vn -0.9248437285423279 0.38034728169441223 1.3138538744307082e-15
vn -0.9998331665992737 -0.0182663481682539 1.4208483234707928e-15
vn -1.9100681899043934e-15 -8.323708069373284e-16 -1.0
vn -6.255321374814063e-15 -4.605522692678393e-15 -1.0
vn -4.021603589829696e-15 -1.897648992831751e-15 -1.0
vn -0.9998331665992737 -0.0182663481682539 -8.013942807971741e-12
vn -0.9167351722717285 -0.3994954824447632 7.411517580213633e-12
vn -0.9998331665992737 -0.0182663481682539 2.8145215006530628e-15
vn -0.9248437285423279 0.38034728169441223 3.1986289193762594e-15
vn -2.12031510818183e-15 -1.0221717262965855e-15 -1.0
vn -0.9248437285423279 0.38034728169441223 7.970713864868632e-15
vn -0.7088915705680847 0.7053174376487732 6.200985058280647e-15
vn -1.935622962164819e-15 -7.489320794625898e-16 -1.0
vn -0.3994954824447632 0.9167351722717285 -1.6591227414097066e-16
vn -0.3994954824447632 0.9167351722717285 7.407688178140415e-12
vn -0.0182663481682539 0.9998331665992737 -8.019648313484229e-12
vn -3.4454375913054542e-15 -3.216174359845685e-15 -1.0
vn -0.0182663481682539 0.9998331665992737 -1.228316569889588e-15
vn 0.38034728169441223 0.9248437285423279 -3.3941632988763624e-15
vn -3.3220729600102594e-15 -3.472072330573629e-15 -1.0
vn 0.38034728169441223 0.9248437285423279 -1.959832010830294e-15
vn 0.7053174376487732 0.7088915705680847 -3.2496943123047346e-16
vn -3.4012906576110337e-15 -3.418526295780001e-15 -1.0
vn 0.7053174376487732 0.7088915705680847 -3.010122795755999e-15
vn 0.9167351722717285 0.3994954824447632 -3.1760349507829614e-15
vn 0.9167351722717285 0.3994954824447632 7.40102423790745e-12
vn 0.9998331665992737 0.0182663481682539 -8.025313052995031e-12
vn -3.490707148057452e-17 -6.377310749684898e-19 -1.0
vn 0.9998331665992737 0.0182663481682539 -2.8371031872686256e-15
vn 0.9248437285423279 -0.38034728169441223 -2.7425770632121243e-15
vn -1.7251073226848658e-15 -1.1847031610728192e-15 -1.0
vn 0.9248437285423279 -0.38034728169441223 -5.12403009969185e-15
vn 0.7088915705680847 -0.7053174376487732 -3.779003189340697e-15
vn -3.157248818804045e-15 -2.20826148030406e-15 -1.0
vn 0.7088915705680847 -0.7053174376487732 -1.0073245092806385e-15
vn 0.3994954824447632 -0.9167351722717285 1.6591227414097066e-16
vn 0.3994954824447632 -0.9167351722717285 7.409239888289676e-12
vn 0.0182663481682539 -0.9998331665992737 -8.016769539875845e-12
vn -1.7311895486417437e-15 -1.144426956189114e-15 -1.0
vn 0.0182663481682539 -0.9998331665992737 2.3088244081756427e-15
vn -0.38034728169441223 -0.9248437285423279 2.1357082379322824e-15
vn -2.6529061320092846e-15 -1.844941308897668e-15 -1.0
vn -0.38034728169441223 -0.9248437285423279 8.102098839383141e-16
vn -0.7053174376487732 -0.7088915705680847 -5.565016521977002e-16
vn -1.055621840889134e-14 -7.921360643163913e-15 -1.0
vn -0.7053174376487732 -0.7088915705680847 1.0073245092806385e-15
vn -0.9167351722717285 -0.3994954824447632 5.688420752062481e-16
vn 1.9100681899043934e-15 8.323708069373284e-16 1.0
vn 3.4164282481092113e-16 3.433740807457701e-16 1.0
vn 5.255343499922316e-15 3.567164484397133e-15 1.0
vn 1.728604509965842e-15 1.2859221159620504e-15 1.0
vn 1.5556826279047582e-15 1.1764620598916269e-15 1.0
vn 1.5249960006542742e-15 1.157488627752249e-15 1.0
vn 3.498481547319597e-15 2.3495563167849707e-15 1.0
vn 5.6241348688932605e-15 3.606944539731984e-15 1.0
vn -2.1758211772154043e-15 -9.481808572550806e-16 1.0
vn 5.605904178769506e-15 2.9459615323091434e-15 1.0
vn 2.67810070350889e-15 1.9062038138407825e-15 1.0
vn 3.4720988003532306e-15 1.7568324123286836e-15 1.0
vn -3.3294832277493136e-15 7.640272759617574e-15 1.0
vn -0.7088915705680847 0.7053174376487732 1.0073245092806385e-15
vn -2.263611060000629e-15 -4.298292831280944e-15 -1.0
vn -2.013459784303332e-15 -7.781832293894501e-15 -1.0
vn -0.38034728169441223 -0.9248437285423279 1.2830052124879199e-11
vn -0.7053174376487732 -0.7088915705680847 -1.1850753017794702e-11
vn -0.38034728169441223 -0.9248437285423279 1.3138538744307082e-15
vn 0.0182663481682539 -0.9998331665992737 1.4208483234707928e-15
vn -3.372368505868799e-15 4.7722217413133546e-15 -1.0
vn 0.0182663481682539 -0.9998331665992737 1.620077672445056e-15
vn 0.3994954824447632 -0.9167351722717285 -1.777854605409233e-15
vn -5.54519139820916e-15 3.825347326500295e-15 -1.0
vn 0.3994954824447632 -0.9167351722717285 1.6294955141482213e-16
vn 0.7088915705680847 -0.7053174376487732 -1.0073245092806385e-15
vn 2.988319320660726e-15 2.0419895480327513e-15 1.0
vn 2.1298643458709382e-15 3.2982829808954383e-15 1.0
vn 5.6441845622712435e-15 -2.6940211112690083e-15 1.0
vn 2.9701646517439877e-15 2.394402264419113e-15 1.0
vn 3.6861836249146764e-15 3.7819933744631825e-16 1.0
vn 4.289004267981353e-15 3.582552531949902e-15 1.0
vn 4.514565753703384e-15 3.093957034677546e-15 1.0
vn 0.7053174376487732 0.7088915705680847 -3.999670942209967e-15
vn 0.825648307800293 0.5641851425170898 -2.0210993862128553e-15
vn -7.429893757139925e-17 -7.467543709900888e-17 -1.0
vn -2.897097525071023e-16 -1.2624991668111864e-16 1.0
vn 1.551180224273628e-15 1.1234001044273549e-15 1.0
vn 2.5926884422066082e-15 1.7716455362685036e-15 1.0
vn 9.961064049272025e-16 6.806631826775838e-16 1.0
vn -5.610002547684796e-15 -2.9481153253357742e-15 1.0
vn 7.278126364117839e-16 7.315007766828068e-16 1.0
vn 4.84468075126975e-15 3.1443311428419433e-15 1.0
vn -1.2662952826071605e-14 -7.359256026838804e-15 1.0
vn 1.0533278215580852e-15 2.2843180509456813e-15 1.0
vn -3.069349033493914e-15 -2.8575541625053703e-15 1.0
vn 3.445589845477723e-15 3.2078332028975982e-15 1.0
vn -9.632543379470629e-16 2.2104108264077178e-15 1.0
vn 8.606769539686726e-15 -5.389881872220335e-16 1.0
vn 2.629640783926169e-16 3.6801815494504325e-15 1.0
vn 4.196687735246883e-16 3.5118621267873733e-15 1.0
vn 4.4046772048407686e-15 -1.4888873831595174e-16 1.0
vn 2.7331426514269283e-16 2.74699269890572e-16 1.0
vn 5.242338156050174e-15 3.53554008579492e-15 1.0
vn -1.7327160078918144e-15 -1.0608727675357529e-15 1.0
vn 4.8069174813823116e-15 3.2084233731035977e-15 1.0
vn -8.566406831563283e-17 8.523216092187194e-17 1.0
vn 7.183009646338865e-15 4.622599723927987e-15 1.0
vn -3.8483194953045424e-16 -7.030647258993448e-18 1.0
vn 2.3235311447772876e-14 1.4262223875321188e-14 1.0
vn 1.534814552468962e-14 7.36087047163627e-15 1.0
vn 1.683877252823434e-15 1.2158496213345439e-15 1.0
vn 5.0878948271290345e-15 3.433458639607147e-15 1.0
vn -0.825648307800293 -0.5641851425170898 4.0421987724257105e-15
vn -0.825648307800293 -0.5641851425170898 3.9501440787510604e-15
vn -0.9167351722717285 -0.3994954824447632 2.6055180267421955e-15
vn -0.9998331665992737 -0.0182663481682539 2.8415511690328948e-15
vn -1.5421558293744623e-15 -1.1232352506399955e-15 -1.0
vn -0.7053174376487732 -0.7088915705680847 1.0073245092806385e-15
vn 2.9221565183595085e-15 2.0206843400687007e-15 1.0
vn -0.9167351722717285 -0.3994954824447632 3.733026240963734e-15
vn -5.222228323332936e-15 -3.568472726784167e-15 -1.0
vn 1.0228621640277161e-14 6.9200165041282454e-15 -1.0
vn -4.779958116737102e-15 -3.2911268230405603e-15 -1.0
vn -8.183571550447744e-15 -5.634604619637797e-15 -1.0
vn -3.1702645388297914e-15 -2.2177662487634373e-15 -1.0
vn -3.1528035898968545e-15 -1.889611497195255e-15 -1.0
vn -2.7700162720219537e-15 1.900375168372489e-15 -1.0
vn -5.107419783596193e-15 1.7381739705665659e-15 -1.0
vn -3.777574668275153e-15 -1.821111519234326e-15 -1.0
vn -6.6917661123151555e-15 -4.984504715037754e-15 -1.0
vn 8.389942340079426e-16 1.6583438681449267e-15 1.0
vn 1.0418843005615612e-15 3.055654840077417e-15 1.0
vn 4.032202089582215e-15 1.1687268491381822e-15 1.0
vn 5.117633730390659e-15 1.2224395376641824e-16 1.0
vn -3.5645160770688647e-16 3.698149235844064e-15 1.0
vn -1.992212809854405e-15 -1.3613263653551675e-15 -1.0
f 1//1 2//1 3//1
f 4//2 3//2 5//2
f 6//3 5//3 3//3
f 1//4 3//4 4//4
f 7//5 1//5 4//5
f 4//6 8//6 7//6
f 9//7 1//7 7//7
f 10//8 9//8 7//8
f 7//9 8//9 10//9
f 11//10 9//10 10//10
f 12//11 11//11 10//11
f 10//12 8//12 13//12
f 13//13 14//13 15//13
f 15//14 16//14 17//14
f 17//15 18//15 19//15
f 20//16 19//16 18//16
f 16//17 18//17 17//17
f 17//18 10//18 15//18
f 14//19 16//19 15//19
f 15//20 10//20 13//20
f 21//21 14//21 13//21
f 13//22 22//22 21//22
f 21//23 22//23 23//23
f 24//24 23//24 22//24
f 22//25 8//25 24//25
f 25//26 23//26 24//26
f 26//27 25//27 24//27
f 24//28 8//28 26//28
f 27//29 25//29 26//29
f 28//30 27//30 26//30
f 26//31 8//31 28//31
f 29//32 27//32 28//32
f 28//33 30//33 29//33
f 29//34 30//34 31//34
f 32//35 31//35 30//35
f 30//36 33//36 32//36
f 34//37 31//37 32//37
f 35//38 34//38 32//38
f 32//39 33//39 35//39
f 36//40 34//40 35//40
f 37//41 36//41 35//41
f 37//42 35//42 33//42
f 33//43 38//43 39//43
f 40//44 39//44 38//44
f 41//45 38//45 33//45
f 42//46 41//46 33//46
f 28//47 33//47 30//47
f 8//48 33//48 28//48
f 33//49 10//49 37//49
f 43//50 36//50 37//50
f 37//51 44//51 43//51
f 43//52 44//52 45//52
f 46//53 45//53 44//53
f 44//54 10//54 46//54
f 47//55 45//55 46//55
f 48//56 47//56 46//56
f 46//57 10//57 48//57
f 49//58 47//58 48//58
f 50//59 49//59 48//59
f 48//60 10//60 50//60
f 50//61 19//61 20//61
f 20//62 49//62 50//62
f 50//63 10//63 19//63
f 19//64 10//64 17//64
f 37//65 10//65 44//65
f 39//66 10//66 33//66
f 8//67 51//67 33//67
f 33//68 51//68 42//68
f 52//69 41//69 42//69
f 53//70 52//70 42//70
f 42//71 51//71 53//71
f 54//72 52//72 53//72
f 53//73 55//73 54//73
f 54//74 55//74 56//74
f 8//75 56//75 55//75
f 55//76 51//76 8//76
f 57//77 56//77 8//77
f 58//78 57//78 8//78
f 13//79 8//79 22//79
f 59//80 8//80 4//80
f 4//81 5//81 60//81
f 61//82 62//82 60//82
f 63//83 60//83 62//83
f 64//84 62//84 61//84
f 65//85 64//85 61//85
f 61//86 5//86 65//86
f 66//87 64//87 65//87
f 67//88 66//88 65//88
f 65//89 5//89 67//89
f 67//90 68//90 69//90
f 69//91 68//91 70//91
f 71//92 70//92 68//92
f 68//93 72//93 71//93
f 73//94 70//94 71//94
f 74//95 73//95 71//95
f 71//96 72//96 74//96
f 75//97 73//97 74//97
f 76//98 75//98 74//98
f 74//99 72//99 76//99
f 77//100 75//100 76//100
f 76//101 78//101 77//101
f 77//102 78//102 79//102
f 80//103 79//103 78//103
f 78//104 8//104 80//104
f 81//105 79//105 80//105
f 82//106 81//106 80//106
f 80//107 8//107 82//107
f 83//108 81//108 82//108
f 84//109 83//109 82//109
f 82//110 8//110 84//110
f 85//111 83//111 84//111
f 84//112 86//112 85//112
f 85//113 86//113 87//113
f 88//114 87//114 86//114
f 86//115 8//115 88//115
f 89//116 87//116 88//116
f 90//117 89//117 88//117
f 88//118 8//118 90//118
f 91//119 89//119 90//119
f 59//120 91//120 90//120
f 90//121 8//121 59//121
f 63//122 91//122 59//122
f 59//123 60//123 63//123
f 62//124 1//124 63//124
f 63//125 40//125 91//125
f 91//126 40//126 89//126
f 89//127 40//127 87//127
f 87//128 40//128 85//128
f 85//129 40//129 83//129
f 83//130 40//130 81//130
f 81//131 40//131 79//131
f 79//132 40//132 77//132
f 77//133 92//133 75//133
f 75//134 92//134 73//134
f 73//135 92//135 70//135
f 70//136 92//136 69//136
f 69//137 66//137 67//137
f 67//138 5//138 68//138
f 5//139 72//139 68//139
f 93//140 94//140 72//140
f 95//141 72//141 94//141
f 92//142 94//142 93//142
f 96//143 92//143 93//143
f 93//144 97//144 96//144
f 98//145 92//145 96//145
f 99//146 98//146 96//146
f 96//147 97//147 99//147
f 6//148 98//148 99//148
f 99//149 5//149 6//149
f 6//150 2//150 98//150
f 98//151 2//151 92//151
f 92//152 1//152 69//152
f 69//153 1//153 66//153
f 66//154 1//154 64//154
f 64//155 1//155 62//155
f 1//156 40//156 63//156
f 12//157 39//157 40//157
f 40//158 11//158 12//158
f 12//159 10//159 39//159
f 11//160 40//160 9//160
f 9//161 40//161 1//161
f 92//162 2//162 1//162
f 3//163 2//163 6//163
f 40//164 92//164 77//164
f 38//165 92//165 40//165
f 41//166 92//166 38//166
f 43//167 92//167 41//167
f 41//168 52//168 36//168
f 36//169 52//169 34//169
f 34//170 52//170 31//170
f 31//171 52//171 29//171
f 29//172 52//172 27//172
f 27//173 100//173 25//173
f 25//174 100//174 23//174
f 23//175 101//175 21//175
f 21//176 95//176 14//176
f 14//177 94//177 16//177
f 16//178 92//178 18//178
f 18//179 92//179 20//179
f 20//180 92//180 49//180
f 49//181 92//181 47//181
f 47//182 92//182 45//182
f 45//183 92//183 43//183
f 43//184 41//184 36//184
f 94//185 92//185 16//185
f 95//186 94//186 14//186
f 95//187 101//187 102//187
f 102//188 101//188 103//188
f 103//189 100//189 58//189
f 100//190 57//190 58//190
f 58//191 8//191 72//191
f 102//192 72//192 95//192
f 101//193 95//193 21//193
f 101//194 100//194 103//194
f 103//195 58//195 102//195
f 102//196 58//196 72//196
f 72//197 8//197 76//197
f 76//198 8//198 78//198
f 84//199 8//199 86//199
f 5//200 97//200 72//200
f 72//201 97//201 93//201
f 99//202 97//202 5//202
f 60//203 5//203 61//203
f 59//204 4//204 60//204
f 100//205 101//205 23//205
f 52//206 100//206 27//206
f 57//207 100//207 52//207
f 54//208 57//208 52//208
f 56//209 57//209 54//209
f 53//210 51//210 55//210
