mtllib part_8.mtl
usemtl part_8

v 1.174347915649414 0.07361956119537354 -0.4
v 1.1788970184326173 0.09861956596374512 -0.4
v 1.1788970184326173 0.07403692722320557 -0.4
v 1.1835503387451172 0.07537485599517822 -0.4
v 1.1788970184326173 0.07403692722320557 -0.1
v 1.1835503387451172 0.07537485599517822 -0.1
v 1.1880281829833985 0.07769467353820801 -0.4
v 1.1880281829833985 0.07769467353820801 -0.1
v 1.1920256042480468 0.08094189643859863 -0.4
v 1.1920256042480468 0.08094189643859863 -0.1
v 1.1952728271484376 0.08493931770324707 -0.4
v 1.1952728271484376 0.08493931770324707 -0.1
v 1.1975926208496095 0.08941719055175781 -0.4
v 1.175016860961914 0.09174384117126465 -0.1
v 1.174347915649414 0.07361956119537354 -0.1
v 1.1697988891601563 0.07403692722320557 -0.1
v 1.1697988891601563 0.07403692722320557 -0.4
v 1.1651455688476562 0.07537485599517822 -0.1
v 1.1651455688476562 0.07537485599517822 -0.4
v 1.160667724609375 0.07769467353820801 -0.1
v 1.160667724609375 0.07769467353820801 -0.4
v 1.1566703033447265 0.08094189643859863 -0.1
v 1.1674722290039063 0.09928853034973145 -0.4
v 1.174347915649414 0.12361956596374513 -0.4
v 1.1697988891601563 0.1232021999359131 -0.4
v 1.174347915649414 0.12361956596374513 -0.1
v 1.1697988891601563 0.1232021999359131 -0.1
v 1.1651455688476562 0.12186427116394043 -0.4
v 1.1651455688476562 0.12186427116394043 -0.1
v 1.160667724609375 0.11954444885253906 -0.4
v 1.160667724609375 0.11954444885253906 -0.1
v 1.1566703033447265 0.1162972354888916 -0.4
v 1.1566703033447265 0.1162972354888916 -0.1
v 1.153423080444336 0.1122998046875 -0.4
v 1.153423080444336 0.1122998046875 -0.1
v 1.1511032104492187 0.10782193183898926 -0.4
v 1.174347915649414 0.10316864013671875 -0.1
v 1.1788970184326173 0.1232021999359131 -0.1
v 1.1788970184326173 0.1232021999359131 -0.4
v 1.1835503387451172 0.12186427116394043 -0.1
v 1.1835503387451172 0.12186427116394043 -0.4
v 1.1880281829833985 0.11954444885253906 -0.1
v 1.1880281829833985 0.11954444885253906 -0.4
v 1.1920256042480468 0.1162972354888916 -0.1
v 1.1511032104492187 0.10782193183898926 -0.1
v 1.1497653198242188 0.10316864013671875 -0.4
v 1.1497653198242188 0.10316864013671875 -0.1
v 1.1493479156494142 0.09861956596374512 -0.4
v 1.1497653198242188 0.09407048225402832 -0.4
v 1.1493479156494142 0.09861956596374512 -0.1
v 1.1497653198242188 0.09407048225402832 -0.1
v 1.1511032104492187 0.08941719055175781 -0.4
v 1.1511032104492187 0.08941719055175781 -0.1
v 1.153423080444336 0.08493931770324707 -0.4
v 1.153423080444336 0.08493931770324707 -0.1
v 1.1566703033447265 0.08094189643859863 -0.4
v 1.199347915649414 0.09861956596374512 -0.1
v 1.1989305877685548 0.09407048225402832 -0.1
v 1.199347915649414 0.09861956596374512 -0.4
v 1.1989305877685548 0.09407048225402832 -0.4
v 1.1975926208496095 0.08941719055175781 -0.1
v 1.1989305877685548 0.10316864013671875 -0.4
v 1.1989305877685548 0.10316864013671875 -0.1
v 1.1975926208496095 0.10782193183898926 -0.4
v 1.1975926208496095 0.10782193183898926 -0.1
v 1.1952728271484376 0.1122998046875 -0.4
v 1.1952728271484376 0.1122998046875 -0.1
v 1.1920256042480468 0.1162972354888916 -0.4
vn 1.5884683298534805e-14 -2.8904256053641783e-15 -1.0
vn 0.276327520608902 -0.9610635042190552 -2.4458555454978713e-16
vn 0.276327520608902 -0.9610635042190552 -1.3089501889408162e-16
vn 0.4599980413913727 -0.8879199624061584 2.103016842514325e-16
vn 0.6305118799209595 -0.7761795520782471 3.2171343658122793e-16
vn 0.7761795520782471 -0.6305118799209595 -3.733380433084584e-17
vn 0.8879199624061584 -0.4599980413913727 -2.7237355233670567e-17
vn 0.7761795520782471 -0.6305118799209595 2.6048264243407624e-16
vn -5.861357351321023e-16 7.215511571074433e-16 1.0
vn 0.6305118799209595 -0.7761795520782471 1.850325076780196e-16
vn -4.4265115966386163e-16 8.544358034550661e-16 1.0
vn 0.4599980413913727 -0.8879199624061584 -2.1831203512894703e-16
vn 3.048466918487017e-15 2.674409333924756e-15 1.0
vn 0.09136364609003067 -0.9958176016807556 -1.6120700611897302e-16
vn -4.008369123545321e-15 1.1280460801430447e-15 1.0
vn 0.09136364609003067 -0.9958176016807556 0.0
vn -0.09136364609003067 -0.9958176016807556 0.0
vn -0.09136364609003067 -0.9958176016807556 2.6964636578273582e-14
vn -0.276327520608902 -0.9610635042190552 -1.137096650345514e-17
vn -0.4599980413913727 -0.8879199624061584 -8.646028590349677e-17
vn -0.6305118799209595 -0.7761795520782471 -1.8377277116210543e-16
vn -0.4599980413913727 -0.8879199624061584 8.622408282522103e-17
vn 1.4854149133587333e-14 -1.4452128026820892e-15 -1.0
vn -0.276327520608902 -0.9610635042190552 -2.852192359245956e-14
vn -1.5619494223408428e-14 0.0 -1.0
vn -0.09136364609003067 0.9958176016807556 0.0
vn -0.09136364609003067 0.9958176016807556 -3.1371460005784015e-17
vn -0.276327520608902 0.9610635042190552 -9.673055377151026e-17
vn -0.4599980413913727 0.8879199624061584 -3.3824399923094485e-16
vn -0.6305118799209595 0.7761795520782471 -2.297953269693226e-16
vn -0.7761795520782471 0.6305118799209595 -4.366745745973741e-16
vn -0.8879199624061584 0.4599980413913727 -6.233078819014757e-16
vn -0.7761795520782471 0.6305118799209595 -1.850325076780196e-16
vn -0.0 -0.0 1.0
vn -0.6305118799209595 0.7761795520782471 -6.197690841269656e-16
vn -0.0 -0.0 1.0
vn -0.4599980413913727 0.8879199624061584 7.338219480520265e-18
vn -0.0 -0.0 1.0
vn -0.276327520608902 0.9610635042190552 1.4808890098572726e-16
vn -0.0 0.0 1.0
vn 0.09136364609003067 0.9958176016807556 0.0
vn 0.09136364609003067 0.9958176016807556 2.6962747694801205e-14
vn 0.276327520608902 0.9610635042190552 5.690639316639797e-17
vn 0.4599980413913727 0.8879199624061584 -1.5772626980601928e-16
vn 0.6305118799209595 0.7761795520782471 -1.3787719088763763e-16
vn 0.4599980413913727 0.8879199624061584 5.2284815970056e-17
vn -0.0 0.0 -1.0
vn 0.276327520608902 0.9610635042190552 -2.834564925987236e-14
vn -0.0 -0.0 -1.0
vn 7.50903093367115e-15 -2.121981433747316e-15 -1.0
vn -0.0 0.0 -1.0
vn -0.0 0.0 -1.0
vn -1.5063588194191325e-14 -1.5524463267715363e-15 -1.0
vn 1.1725746445318506e-14 7.446827375123637e-15 -1.0
vn -0.0 -0.0 -1.0
vn -0.0 -0.0 -1.0
vn -0.8879199624061584 0.4599980413913727 -2.5683770084336337e-16
vn -0.9610635042190552 0.276327520608902 -3.5707986792573275e-16
vn 6.922679575714413e-15 1.3279253151460887e-14 -1.0
vn -0.9610635042190552 0.276327520608902 -2.8094854662651624e-14
vn -0.9958176016807556 0.09136364609003067 2.732680923179468e-14
vn 5.784712516297534e-16 -1.5672567613817488e-14 -1.0
vn -0.9958176016807556 -0.09136364609003067 0.0
vn -0.9958176016807556 -0.09136364609003067 4.82533600106212e-16
vn -0.9610635042190552 -0.276327520608902 -4.879748868198144e-16
vn -0.8879199624061584 -0.4599980413913727 -2.299418901389772e-16
vn -0.7761795520782471 -0.6305118799209595 1.0656837029179205e-15
vn -0.6305118799209595 -0.7761795520782471 8.497123771642617e-16
vn -1.1149005523181316e-15 3.538087749142024e-15 1.0
vn -0.7761795520782471 -0.6305118799209595 -1.0598949077028172e-16
vn 1.0746154535884803e-15 -3.4102448546546957e-15 1.0
vn -0.8879199624061584 -0.4599980413913727 -4.751497492072002e-16
vn 7.226064013410446e-16 2.0776570731202254e-16 1.0
vn -0.9610635042190552 -0.276327520608902 4.877379822923792e-16
vn -0.0 0.0 1.0
vn 0.9958176016807556 -0.09136364609003067 0.0
vn 0.9958176016807556 -0.09136364609003067 2.731058008052529e-14
vn 0.9610635042190552 -0.276327520608902 4.908562877655816e-17
vn 0.8879199624061584 -0.4599980413913727 8.163769720085951e-17
vn 0.0 0.0 -1.0
vn 0.9610635042190552 -0.276327520608902 -2.814357938590948e-14
vn 0.0 0.0 -1.0
vn 0.9958176016807556 0.09136364609003067 0.0
vn 0.9958176016807556 0.09136364609003067 -5.409814559246311e-18
vn 0.9610635042190552 0.276327520608902 -4.716130160754991e-16
vn 0.8879199624061584 0.4599980413913727 5.4474710467341134e-17
vn 0.7761795520782471 0.6305118799209595 -4.423401132837621e-16
vn 0.6305118799209595 0.7761795520782471 -3.8982576461988998e-16
vn -0.0 0.0 1.0
vn 0.7761795520782471 0.6305118799209595 7.365371684127318e-17
vn -0.0 0.0 1.0
vn 0.8879199624061584 0.4599980413913727 -4.485486794986789e-16
vn 7.226064013410446e-16 -3.609654621646724e-15 1.0
vn 0.9610635042190552 0.276327520608902 -1.624200896483392e-17
vn 7.226064013410446e-16 3.971170824633701e-15 1.0
vn 3.509833218180903e-16 -3.825540873528743e-15 1.0
vn -7.495110794215974e-16 6.876567499112583e-17 1.0
vn -3.8209920948437505e-16 -3.707558077822165e-15 1.0
vn 3.881115816928841e-16 3.765897048547831e-15 1.0
vn -6.889530411928024e-16 5.59655420558124e-16 1.0
vn 5.613537216173688e-16 6.910437302648628e-16 1.0
vn 4.2836939007976607e-16 8.2686811033505e-16 1.0
vn -2.987411724857743e-15 2.8867579527025672e-15 1.0
vn 3.9813127736276505e-15 8.331485420015855e-16 1.0
vn 0.0 0.0 1.0
vn -0.9958176016807556 0.09136364609003067 0.0
vn 5.745665885615887e-16 -1.5566779974969004e-14 -1.0
vn -1.19960050126342e-14 2.709023801182424e-14 -1.0
vn 1.0598686946800776e-14 -1.0377069246481161e-14 -1.0
vn 0.0 -0.0 -1.0
vn 0.0 -0.0 -1.0
vn 0.0 -0.0 -1.0
vn 0.0 -0.0 1.0
vn -0.0 -0.0 1.0
vn -0.0 -0.0 1.0
vn 2.1223384581345837e-15 -2.85773161590782e-15 1.0
vn -3.160924518278655e-15 1.5558709868564039e-15 1.0
vn -0.0 0.0 1.0
vn -0.0 0.0 1.0
vn 0.0 -0.0 1.0
vn -0.0 0.0 -1.0
vn -0.0 0.0 -1.0
vn -0.0 0.0 -1.0
vn -0.0 0.0 -1.0
vn 0.0 -0.0 -1.0
vn -0.0 0.0 -1.0
vn 0.0 0.0 -1.0
vn 6.2234839474256155e-15 1.264369807311462e-14 -1.0
vn -1.143092646363128e-14 -8.489353832538335e-15 -1.0
vn 0.0 0.0 -1.0
vn 0.0 0.0 -1.0
vn -1.4438618486586896e-14 -2.8904256053641783e-15 -1.0
f 1//1 2//1 3//1
f 3//2 4//2 5//2
f 5//3 4//3 6//3
f 6//4 7//4 8//4
f 8//5 9//5 10//5
f 10//6 11//6 12//6
f 13//7 12//7 11//7
f 9//8 11//8 10//8
f 10//9 14//9 8//9
f 7//10 9//10 8//10
f 8//11 14//11 6//11
f 4//12 7//12 6//12
f 6//13 14//13 5//13
f 15//14 3//14 5//14
f 5//15 14//15 15//15
f 1//16 3//16 15//16
f 15//17 16//17 1//17
f 1//18 16//18 17//18
f 17//19 18//19 19//19
f 19//20 20//20 21//20
f 22//21 21//21 20//21
f 18//22 20//22 19//22
f 19//23 23//23 17//23
f 16//24 18//24 17//24
f 1//25 17//25 24//25
f 24//26 25//26 26//26
f 26//27 25//27 27//27
f 27//28 28//28 29//28
f 29//29 30//29 31//29
f 31//30 32//30 33//30
f 33//31 34//31 35//31
f 36//32 35//32 34//32
f 32//33 34//33 33//33
f 33//34 37//34 31//34
f 30//35 32//35 31//35
f 31//36 37//36 29//36
f 28//37 30//37 29//37
f 29//38 37//38 27//38
f 25//39 28//39 27//39
f 27//40 37//40 26//40
f 26//41 38//41 24//41
f 24//42 38//42 39//42
f 39//43 40//43 41//43
f 41//44 42//44 43//44
f 44//45 43//45 42//45
f 40//46 42//46 41//46
f 41//47 2//47 39//47
f 38//48 40//48 39//48
f 39//49 2//49 24//49
f 17//50 23//50 24//50
f 24//51 23//51 25//51
f 25//52 23//52 28//52
f 28//53 23//53 30//53
f 30//54 23//54 32//54
f 32//55 23//55 34//55
f 34//56 23//56 36//56
f 45//57 35//57 36//57
f 46//58 45//58 36//58
f 36//59 23//59 46//59
f 47//60 45//60 46//60
f 48//61 47//61 46//61
f 46//62 23//62 48//62
f 48//63 49//63 50//63
f 50//64 49//64 51//64
f 51//65 52//65 53//65
f 53//66 54//66 55//66
f 55//67 56//67 22//67
f 56//68 21//68 22//68
f 22//69 14//69 55//69
f 54//70 56//70 55//70
f 55//71 14//71 53//71
f 52//72 54//72 53//72
f 53//73 14//73 51//73
f 49//74 52//74 51//74
f 50//75 51//75 57//75
f 57//76 58//76 59//76
f 59//77 58//77 60//77
f 60//78 61//78 13//78
f 61//79 12//79 13//79
f 13//80 2//80 60//80
f 58//81 61//81 60//81
f 60//82 2//82 59//82
f 59//83 62//83 57//83
f 57//84 62//84 63//84
f 63//85 64//85 65//85
f 65//86 66//86 67//86
f 67//87 68//87 44//87
f 68//88 43//88 44//88
f 44//89 37//89 67//89
f 66//90 68//90 67//90
f 67//91 37//91 65//91
f 64//92 66//92 65//92
f 65//93 37//93 63//93
f 62//94 64//94 63//94
f 63//95 37//95 57//95
f 51//96 14//96 57//96
f 57//97 14//97 58//97
f 58//98 14//98 61//98
f 61//99 14//99 12//99
f 12//100 14//100 10//100
f 20//101 14//101 22//101
f 18//102 14//102 20//102
f 16//103 14//103 18//103
f 15//104 14//104 16//104
f 57//105 37//105 50//105
f 50//106 47//106 48//106
f 48//107 23//107 49//107
f 49//108 23//108 52//108
f 52//109 23//109 54//109
f 54//110 23//110 56//110
f 56//111 23//111 21//111
f 21//112 23//112 19//112
f 47//113 37//113 45//113
f 45//114 37//114 35//114
f 35//115 37//115 33//115
f 42//116 37//116 44//116
f 40//117 37//117 42//117
f 38//118 37//118 40//118
f 26//119 37//119 38//119
f 50//120 37//120 47//120
f 64//121 2//121 66//121
f 66//122 2//122 68//122
f 68//123 2//123 43//123
f 43//124 2//124 41//124
f 24//125 2//125 1//125
f 62//126 2//126 64//126
f 59//127 2//127 62//127
f 11//128 2//128 13//128
f 9//129 2//129 11//129
f 7//130 2//130 9//130
f 4//131 2//131 7//131
f 3//132 2//132 4//132
